<svg width="32" height="26" viewBox="0 0 32 26" fill="none" xmlns="http://www.w3.org/2000/svg">
<g clip-path="url(#clip0_50_485)">
<path d="M12.0998 24.375C13.0939 24.375 13.8998 23.6475 13.8998 22.75C13.8998 21.8525 13.0939 21.125 12.0998 21.125C11.1057 21.125 10.2998 21.8525 10.2998 22.75C10.2998 23.6475 11.1057 24.375 12.0998 24.375Z" fill="white"/>
<path d="M24.6994 24.375C25.6935 24.375 26.4994 23.6475 26.4994 22.75C26.4994 21.8525 25.6935 21.125 24.6994 21.125C23.7053 21.125 22.8994 21.8525 22.8994 22.75C22.8994 23.6475 23.7053 24.375 24.6994 24.375Z" fill="white"/>
<path d="M7.58161 2.27825C7.54084 2.09413 7.4307 1.92844 7.26991 1.80935C7.10911 1.69025 6.90759 1.62511 6.69961 1.625H3.09961V3.25H5.96161L9.41761 18.8467C9.45837 19.0309 9.56852 19.1966 9.72931 19.3157C9.89011 19.4347 10.0916 19.4999 10.2996 19.5H26.4996V17.875H11.0376L10.3176 14.625H26.4996C26.7043 14.625 26.903 14.5619 27.0626 14.4463C27.2223 14.3306 27.3336 14.1692 27.378 13.9888L29.4192 5.6875H27.5769L25.7778 13H9.95761L7.58161 2.27825Z" fill="white"/>
<path d="M21.1575 5.44778L14.6601 5.46721C14.4613 5.46781 14.2709 5.53629 14.1307 5.65759C13.9906 5.77889 13.9122 5.94308 13.9128 6.11403C13.9134 6.28499 13.993 6.4487 14.1341 6.56916C14.2751 6.68962 14.466 6.75696 14.6649 6.75637L21.1622 6.73693C21.3611 6.73634 21.5515 6.66786 21.6916 6.54655C21.8318 6.42525 21.9102 6.26107 21.9096 6.09011C21.9089 5.91916 21.8293 5.75544 21.6883 5.63498C21.5473 5.51452 21.3563 5.44718 21.1575 5.44778ZM21.4137 7.1659L14.4166 7.18684C14.3503 7.18703 14.2868 7.20986 14.2401 7.25029C14.1934 7.29073 14.1672 7.34546 14.1675 7.40244L14.1682 7.6173C14.1691 7.84524 14.2752 8.06352 14.4632 8.22414C14.6513 8.38475 14.9059 8.47454 15.171 8.47375L20.6687 8.4573C20.9338 8.45651 21.1878 8.3652 21.3746 8.20346C21.5615 8.04173 21.666 7.82281 21.6652 7.59487L21.6644 7.38002C21.6642 7.32303 21.6377 7.26846 21.5906 7.22831C21.5436 7.18815 21.48 7.16571 21.4137 7.1659ZM14.8248 5.037L20.9897 5.01856C21.5297 5.01694 21.8407 4.42648 21.5298 3.99796C20.8991 3.12804 19.5151 2.44597 17.8978 2.44946C16.2806 2.45565 14.9015 3.14599 14.2772 4.01952C13.9692 4.4499 14.2848 5.03861 14.8248 5.037ZM19.9009 3.51778C19.9503 3.51763 19.9987 3.53009 20.0399 3.55358C20.0811 3.57706 20.1132 3.61052 20.1323 3.64973C20.1513 3.68893 20.1564 3.73212 20.1469 3.77382C20.1375 3.81553 20.1138 3.85389 20.079 3.88404C20.0441 3.91419 19.9997 3.93479 19.9512 3.94323C19.9028 3.95166 19.8525 3.94756 19.8068 3.93143C19.7611 3.9153 19.7219 3.88788 19.6944 3.85263C19.6668 3.81738 19.652 3.77588 19.6518 3.73339C19.6516 3.6764 19.6777 3.62167 19.7244 3.58124C19.7712 3.54081 19.8346 3.51798 19.9009 3.51778ZM17.9001 3.09404C17.9496 3.09389 17.9979 3.10635 18.0391 3.12984C18.0803 3.15332 18.1125 3.18678 18.1315 3.22599C18.1506 3.26519 18.1557 3.30838 18.1462 3.35009C18.1367 3.39179 18.113 3.43015 18.0782 3.4603C18.0434 3.49046 17.9989 3.51105 17.9505 3.51949C17.902 3.52792 17.8518 3.52382 17.806 3.50769C17.7603 3.49157 17.7212 3.46414 17.6936 3.42889C17.666 3.39364 17.6512 3.35214 17.651 3.30965C17.6508 3.25267 17.677 3.19794 17.7237 3.1575C17.7704 3.11707 17.8339 3.09424 17.9001 3.09404ZM15.9025 3.52974C15.952 3.52959 16.0003 3.54205 16.0415 3.56554C16.0827 3.58902 16.1148 3.62248 16.1339 3.66169C16.153 3.70089 16.1581 3.74408 16.1486 3.78579C16.1391 3.82749 16.1154 3.86585 16.0806 3.896C16.0458 3.92615 16.0013 3.94675 15.9529 3.95519C15.9044 3.96362 15.8541 3.95952 15.8084 3.94339C15.7627 3.92727 15.7236 3.89984 15.696 3.86459C15.6684 3.82934 15.6536 3.78784 15.6534 3.74535C15.6532 3.68836 15.6794 3.63364 15.7261 3.5932C15.7728 3.55277 15.8363 3.52994 15.9025 3.52974Z" fill="white"/>
</g>
<defs>
<clipPath id="clip0_50_485">
<rect width="28.8" height="26" fill="white" transform="translate(3.09961)"/>
</clipPath>
</defs>
</svg>
