<svg width="24" height="26" viewBox="0 0 24 26" fill="none" xmlns="http://www.w3.org/2000/svg">
<path d="M9.51129 2.41403C9.05287 4.37128 8.99053 6.40045 9.32793 8.38215C9.66534 10.3638 10.3957 12.258 11.476 13.9533C12.5563 15.6486 13.9647 17.1107 15.6184 18.2536C17.2721 19.3964 19.1377 20.197 21.1054 20.6083C20.0709 21.6787 18.8319 22.5303 17.4619 23.1127C16.092 23.695 14.6189 23.9962 13.1303 23.9983C12.9923 23.9983 12.8523 24.0033 12.7123 23.9983C10.1207 23.907 7.64289 22.9107 5.70944 21.1825C3.77599 19.4542 2.50906 17.1033 2.12875 14.5381C1.74843 11.9728 2.27877 9.35543 3.62762 7.14056C4.97647 4.9257 7.05761 3.25335 9.51129 2.41403ZM10.9893 0C10.9306 0.000197947 10.8721 0.00555197 10.8143 0.0160002C7.63089 0.58253 4.76958 2.30672 2.7813 4.85659C0.79302 7.40647 -0.181666 10.6018 0.0449047 13.8272C0.271475 17.0527 1.68328 20.0804 4.00851 22.3273C6.33373 24.5742 9.40797 25.8814 12.6393 25.9973C12.8033 26.0033 12.9673 25.9973 13.1293 25.9973C15.2283 25.9987 17.2967 25.4946 19.1597 24.5277C21.0227 23.5608 22.6255 22.1595 23.8325 20.4423C23.9303 20.2943 23.9873 20.1231 23.998 19.946C24.0086 19.769 23.9724 19.5922 23.8931 19.4336C23.8137 19.2749 23.6939 19.14 23.5458 19.0423C23.3977 18.9447 23.2265 18.8877 23.0495 18.8772C21.0517 18.7019 19.121 18.0696 17.4066 17.0291C15.6922 15.9886 14.24 14.5678 13.1622 12.8766C12.0845 11.1853 11.4101 9.26891 11.1911 7.27546C10.9721 5.282 11.2144 3.26489 11.8993 1.38002C11.9576 1.22915 11.979 1.06654 11.9617 0.905734C11.9443 0.744932 11.8889 0.590593 11.7998 0.455574C11.7108 0.320556 11.5908 0.208768 11.4498 0.129523C11.3088 0.0502781 11.1509 0.00587057 10.9893 0Z" fill="#212021"/>
</svg>
