<svg width="26" height="26" viewBox="0 0 26 26" fill="none" xmlns="http://www.w3.org/2000/svg">
<path d="M12.8252 7.09091C9.76724 7.09091 7.28542 9.73818 7.28542 13C7.28542 16.2618 9.76724 18.9091 12.8252 18.9091C15.8831 18.9091 18.365 16.2618 18.365 13C18.365 9.73818 15.8831 7.09091 12.8252 7.09091ZM1.74565 14.1818H3.96156C4.57093 14.1818 5.06951 13.65 5.06951 13C5.06951 12.35 4.57093 11.8182 3.96156 11.8182H1.74565C1.13627 11.8182 0.637695 12.35 0.637695 13C0.637695 13.65 1.13627 14.1818 1.74565 14.1818ZM21.6888 14.1818H23.9047C24.5141 14.1818 25.0127 13.65 25.0127 13C25.0127 12.35 24.5141 11.8182 23.9047 11.8182H21.6888C21.0795 11.8182 20.5809 12.35 20.5809 13C20.5809 13.65 21.0795 14.1818 21.6888 14.1818ZM11.7172 1.18182V3.54545C11.7172 4.19545 12.2158 4.72727 12.8252 4.72727C13.4346 4.72727 13.9331 4.19545 13.9331 3.54545V1.18182C13.9331 0.531818 13.4346 0 12.8252 0C12.2158 0 11.7172 0.531818 11.7172 1.18182ZM11.7172 22.4545V24.8182C11.7172 25.4682 12.2158 26 12.8252 26C13.4346 26 13.9331 25.4682 13.9331 24.8182V22.4545C13.9331 21.8045 13.4346 21.2727 12.8252 21.2727C12.2158 21.2727 11.7172 21.8045 11.7172 22.4545ZM6.16639 4.23091C6.06389 4.12135 5.94214 4.03443 5.8081 3.97512C5.67407 3.91582 5.53039 3.88529 5.38528 3.88529C5.24017 3.88529 5.09649 3.91582 4.96246 3.97512C4.82842 4.03443 4.70667 4.12135 4.60417 4.23091C4.50146 4.34024 4.41997 4.47011 4.36437 4.61308C4.30878 4.75605 4.28016 4.90931 4.28016 5.06409C4.28016 5.21887 4.30878 5.37213 4.36437 5.5151C4.41997 5.65807 4.50146 5.78794 4.60417 5.89727L5.7786 7.15C6.21071 7.61091 6.9198 7.61091 7.34082 7.15C7.76184 6.68909 7.77292 5.93273 7.34082 5.48364L6.16639 4.23091ZM19.8718 18.85C19.7693 18.7404 19.6475 18.6535 19.5135 18.5942C19.3795 18.5349 19.2358 18.5044 19.0907 18.5044C18.9456 18.5044 18.8019 18.5349 18.6679 18.5942C18.5338 18.6535 18.4121 18.7404 18.3096 18.85C18.2069 18.9593 18.1254 19.0892 18.0698 19.2322C18.0142 19.3751 17.9856 19.5284 17.9856 19.6832C17.9856 19.838 18.0142 19.9912 18.0698 20.1342C18.1254 20.2772 18.2069 20.407 18.3096 20.5164L19.484 21.7691C19.9161 22.23 20.6252 22.23 21.0462 21.7691C21.1489 21.6598 21.2304 21.5299 21.286 21.3869C21.3416 21.2439 21.3702 21.0907 21.3702 20.9359C21.3702 20.7811 21.3416 20.6279 21.286 20.4849C21.2304 20.3419 21.1489 20.2121 21.0462 20.1027L19.8718 18.85ZM21.0462 5.89727C21.1489 5.78794 21.2304 5.65807 21.286 5.5151C21.3416 5.37213 21.3702 5.21887 21.3702 5.06409C21.3702 4.90931 21.3416 4.75605 21.286 4.61308C21.2304 4.47011 21.1489 4.34024 21.0462 4.23091C20.9437 4.12135 20.822 4.03443 20.6879 3.97512C20.5539 3.91582 20.4102 3.88529 20.2651 3.88529C20.12 3.88529 19.9763 3.91582 19.8423 3.97512C19.7083 4.03443 19.5865 4.12135 19.484 4.23091L18.3096 5.48364C17.8775 5.94454 17.8775 6.70091 18.3096 7.15C18.7417 7.59909 19.4508 7.61091 19.8718 7.15L21.0462 5.89727ZM7.34082 20.5164C7.44353 20.407 7.52502 20.2772 7.58062 20.1342C7.63622 19.9912 7.66483 19.838 7.66483 19.6832C7.66483 19.5284 7.63622 19.3751 7.58062 19.2322C7.52502 19.0892 7.44353 18.9593 7.34082 18.85C7.23832 18.7404 7.11657 18.6535 6.98253 18.5942C6.8485 18.5349 6.70482 18.5044 6.55971 18.5044C6.4146 18.5044 6.27092 18.5349 6.13689 18.5942C6.00286 18.6535 5.8811 18.7404 5.7786 18.85L4.60417 20.1027C4.17207 20.5636 4.17207 21.32 4.60417 21.7691C5.03627 22.2182 5.74537 22.23 6.16639 21.7691L7.34082 20.5164Z" fill="#212021"/>
</svg>
