<svg width="26" height="24" viewBox="0 0 26 24" fill="none" xmlns="http://www.w3.org/2000/svg">
<path d="M24.8194 8.45108L17.3249 7.35612L13.9747 0.528203C13.8832 0.341259 13.7326 0.189923 13.5466 0.0979342C13.0803 -0.133521 12.5135 0.0593584 12.2803 0.528203L8.9301 7.35612L1.43559 8.45108C1.22896 8.48076 1.04005 8.57868 0.895415 8.72705C0.720558 8.90772 0.624204 9.15079 0.627524 9.40284C0.630845 9.6549 0.73357 9.89531 0.913125 10.0713L6.33551 15.3858L5.05444 22.8903C5.0244 23.0649 5.04362 23.2444 5.10991 23.4086C5.17621 23.5727 5.28693 23.7149 5.42952 23.819C5.57211 23.9231 5.74086 23.985 5.91665 23.9976C6.09243 24.0102 6.26822 23.973 6.42406 23.8903L13.1275 20.3473L19.8309 23.8903C20.014 23.9882 20.2265 24.0209 20.4302 23.9853C20.9438 23.8962 21.2891 23.4066 21.2006 22.8903L19.9195 15.3858L25.3419 10.0713C25.4895 9.92587 25.5869 9.73595 25.6164 9.52824C25.6961 9.00895 25.336 8.52823 24.8194 8.45108Z" fill="#F1C950"/>
</svg>
