<svg width="17" height="16" viewBox="0 0 17 16" fill="none" xmlns="http://www.w3.org/2000/svg">
<path d="M12.325 1.3079C14.2001 1.3079 15.725 2.87215 15.725 4.79564C15.725 8.8667 11.0135 12.5916 8.5 14.407C5.98655 12.5916 1.275 8.8667 1.275 4.79564C1.275 2.87215 2.7999 1.3079 4.675 1.3079C5.22096 1.30916 5.75864 1.44494 6.24278 1.7038C6.72692 1.96267 7.14336 2.33704 7.45705 2.79542L8.5 4.31869L9.54295 2.79629C9.85644 2.33765 10.2728 1.96302 10.757 1.70399C11.2412 1.44496 11.7789 1.30912 12.325 1.3079ZM12.325 5.10637e-08C11.5742 -0.000112435 10.8344 0.18562 10.1685 0.54143C9.50262 0.89724 8.93025 1.41262 8.5 2.04381C8.06975 1.41262 7.49738 0.89724 6.83148 0.54143C6.16558 0.18562 5.42582 -0.000112435 4.675 5.10637e-08C3.43511 5.10637e-08 2.24601 0.505254 1.36928 1.40461C0.492543 2.30397 0 3.52376 0 4.79564C0 9.78223 5.525 13.8969 8.5 16C11.475 13.8969 17 9.78223 17 4.79564C17 4.16587 16.8791 3.54226 16.6441 2.96043C16.4092 2.37859 16.0648 1.84993 15.6307 1.40461C15.1966 0.959294 14.6812 0.60605 14.114 0.365046C13.5468 0.124043 12.9389 5.10637e-08 12.325 5.10637e-08Z" fill="#D3AA43"/>
</svg>
